<?xml version="1.0" standalone="no"?>
<!DOCTYPE svg PUBLIC "-//W3C//DTD SVG 20010904//EN"
 "http://www.w3.org/TR/2001/REC-SVG-20010904/DTD/svg10.dtd">
<svg version="1.0" xmlns="http://www.w3.org/2000/svg"
 width="300.000000pt" height="300.000000pt" viewBox="0 0 300.000000 300.000000"
 preserveAspectRatio="xMidYMid meet">
<metadata>
Created by potrace 1.14, written by Peter Selinger 2001-2017
</metadata>
<g transform="translate(0.000000,300.000000) scale(0.100000,-0.100000)"
fill="#000000" stroke="none">
<path d="M1288 2815 c-2 -1 -28 -5 -58 -8 -71 -8 -184 -32 -237 -51 -22 -8
-44 -12 -47 -9 -3 4 -6 1 -6 -6 0 -7 -4 -10 -9 -7 -5 3 -18 -2 -30 -12 -18
-14 -22 -31 -26 -110 -3 -52 -7 -98 -11 -103 -3 -5 -7 -53 -9 -107 -7 -173
-18 -369 -30 -567 -12 -206 -16 -256 -20 -335 -9 -161 -15 -265 -20 -325 -2
-33 -7 -112 -10 -175 -4 -63 -9 -140 -10 -170 -2 -30 -7 -113 -10 -185 -4 -71
-8 -136 -10 -142 -6 -17 1 -16 30 3 14 9 25 15 26 13 1 -2 2 -83 3 -179 1 -96
5 -180 9 -186 12 -20 46 -23 67 -6 20 16 21 28 21 229 l-1 212 91 60 c138 93
126 93 126 0 0 -87 14 -119 53 -119 36 0 47 37 46 155 l-2 110 231 152 c126
84 237 158 245 163 51 35 296 196 452 296 101 65 185 121 188 124 7 7 42 29
60 37 8 3 25 17 37 30 12 13 24 23 27 23 3 0 39 23 80 50 71 49 74 52 68 83
-3 18 -5 40 -6 50 0 9 -4 17 -9 17 -4 0 -6 4 -3 9 7 10 -35 155 -46 159 -4 2
-4 10 -1 18 3 8 1 14 -4 14 -5 0 -10 6 -10 13 0 19 -76 167 -85 167 -5 0 -7 4
-4 8 3 5 -4 19 -15 30 -11 12 -17 22 -14 22 7 0 -10 22 -45 58 -14 14 -18 21
-10 17 16 -10 -19 31 -92 107 -26 26 -53 48 -59 48 -7 0 -10 3 -6 6 7 7 -97
94 -112 94 -6 0 -11 5 -11 10 0 6 -10 10 -22 10 -12 0 -18 3 -15 6 8 8 -95 64
-105 57 -5 -2 -8 0 -8 5 0 10 -109 58 -122 54 -5 -1 -8 2 -8 8 0 5 -7 10 -15
10 -8 0 -34 7 -58 15 -24 8 -54 17 -68 19 -13 3 -24 5 -24 6 0 1 -9 3 -20 4
-11 2 -40 7 -65 11 -44 7 -246 15 -252 10z"/>
</g>
</svg>
